<svg width="100" height="100" viewBox="0 0 100 100" fill="none" xmlns="http://www.w3.org/2000/svg">
<path d="M21.4692 78.4743L45.1555 78.3933L96.854 26.8865C98.8829 24.8457 99.9993 22.1354 99.9993 19.2523C99.9993 16.3692 98.8829 13.6589 96.854 11.6181L88.3414 3.05518C84.2836 -1.02649 77.2041 -1.0049 73.1785 3.03898L21.4692 54.5566V78.4743ZM80.7519 10.6894L89.2807 19.2361L80.709 27.7774L72.1963 19.2199L80.7519 10.6894ZM32.204 59.0594L64.5693 26.8109L73.0819 35.3738L40.722 67.6115L32.204 67.6384V59.0594Z" fill="#112240"/>
<path d="M10.7348 99.9995H85.878C91.7982 99.9995 96.6128 95.1566 96.6128 89.2015V42.4026L85.878 53.2007V89.2015H27.6849C27.5454 89.2015 27.4005 89.2555 27.2609 89.2555C27.0838 89.2555 26.9067 89.2069 26.7242 89.2015H10.7348V13.615H47.4852L58.2199 2.81689H10.7348C4.81454 2.81689 0 7.65983 0 13.615V89.2015C0 95.1566 4.81454 99.9995 10.7348 99.9995Z" fill="#112240"/>
</svg>
