<svg width="16" height="16" viewBox="0 0 16 16" fill="none" xmlns="http://www.w3.org/2000/svg">
<path d="M15.8571 7.32143H13.675C13.3661 4.70714 11.2929 2.63393 8.67857 2.325V0.142857C8.67857 0.0642857 8.61429 0 8.53572 0H7.46429C7.38571 0 7.32143 0.0642857 7.32143 0.142857V2.325C4.70714 2.63393 2.63393 4.70714 2.325 7.32143H0.142857C0.0642857 7.32143 0 7.38571 0 7.46429V8.53572C0 8.61429 0.0642857 8.67857 0.142857 8.67857H2.325C2.63393 11.2929 4.70714 13.3661 7.32143 13.675V15.8571C7.32143 15.9357 7.38571 16 7.46429 16H8.53572C8.61429 16 8.67857 15.9357 8.67857 15.8571V13.675C11.2929 13.3661 13.3661 11.2929 13.675 8.67857H15.8571C15.9357 8.67857 16 8.61429 16 8.53572V7.46429C16 7.38571 15.9357 7.32143 15.8571 7.32143ZM8 12.3571C5.59286 12.3571 3.64286 10.4071 3.64286 8C3.64286 5.59286 5.59286 3.64286 8 3.64286C10.4071 3.64286 12.3571 5.59286 12.3571 8C12.3571 10.4071 10.4071 12.3571 8 12.3571Z" fill="#64FFDA"/>
<path d="M7.604 6.4799C7.64933 6.4719 7.68133 6.4719 7.7 6.4799C7.71333 6.48524 7.72533 6.49724 7.736 6.5159V6.6839C7.72267 7.1799 7.73333 7.6759 7.768 8.1719C7.78933 8.54524 7.82533 8.83324 7.876 9.0359C7.89733 9.11857 7.91467 9.16657 7.928 9.1799C7.93867 9.1879 7.94933 9.19457 7.96 9.1999C7.97067 9.20257 7.996 9.19324 8.036 9.1719C8.12667 9.12657 8.19867 9.1039 8.252 9.1039C8.292 9.1039 8.316 9.11724 8.324 9.1439C8.32933 9.1599 8.32933 9.17857 8.324 9.1999C8.308 9.24524 8.26533 9.2919 8.196 9.3399C8.11867 9.39057 8.02 9.4399 7.9 9.4879C7.84667 9.50657 7.78933 9.51724 7.728 9.5199C7.66933 9.5199 7.62267 9.51057 7.588 9.4919C7.54533 9.47324 7.512 9.44257 7.488 9.3999C7.448 9.32257 7.40933 9.14924 7.372 8.8799C7.36933 8.85857 7.36667 8.83857 7.364 8.8199L7.36 8.7559H6.844L6.328 8.7519L6.284 8.8159C6.028 9.1919 5.82667 9.4279 5.68 9.5239C5.60533 9.57457 5.53733 9.5999 5.476 9.5999C5.356 9.5999 5.25867 9.54524 5.184 9.4359C5.17333 9.4199 5.164 9.40257 5.156 9.3839C5.12133 9.30924 5.11067 9.22924 5.124 9.1439C5.14533 9.0239 5.19067 8.93724 5.26 8.8839C5.276 8.87057 5.292 8.86257 5.308 8.8599C5.32933 8.8599 5.34533 8.86657 5.356 8.8799C5.37467 8.89324 5.38533 8.9199 5.388 8.9599C5.39067 8.99457 5.408 9.0279 5.44 9.0599C5.45333 9.0759 5.47333 9.09057 5.5 9.1039C5.556 9.13324 5.59867 9.14257 5.628 9.1319C5.724 9.1159 5.87733 8.95857 6.088 8.6599C6.48533 8.1079 6.83067 7.53724 7.124 6.9479L7.204 6.7839H7.252H7.3V6.7399C7.30267 6.70257 7.31333 6.6719 7.332 6.6479C7.38267 6.57324 7.46 6.5199 7.564 6.4879C7.57733 6.48524 7.59067 6.48257 7.604 6.4799ZM7.304 7.8039L7.296 7.3919V7.1199L7.264 7.1799C7.06667 7.5719 6.836 7.97457 6.572 8.3879L6.52 8.4679L6.536 8.4599C6.568 8.44924 6.71333 8.4439 6.972 8.4439H7.336L7.332 8.3999C7.324 8.28524 7.31467 8.08657 7.304 7.8039ZM9.45541 6.6719L10.0594 6.6679C10.0754 6.6679 10.0914 6.6679 10.1074 6.6679H10.7274L10.7474 6.6799C10.7954 6.70924 10.7914 6.7559 10.7354 6.8199C10.6847 6.88924 10.6074 6.93857 10.5034 6.9679C10.4874 6.97324 10.3954 6.97724 10.2274 6.9799H9.97541L9.95141 7.0159C9.91407 7.06657 9.87541 7.14524 9.83541 7.2519C9.78207 7.3799 9.70474 7.64924 9.60341 8.0599C9.51541 8.3959 9.43274 8.64257 9.35541 8.7999C9.30741 8.89857 9.25274 8.9839 9.19141 9.0559C9.17807 9.0719 9.17007 9.08124 9.16741 9.0839C9.16741 9.08657 9.28607 9.0879 9.52341 9.0879C9.79541 9.0879 9.93541 9.0799 9.94341 9.0639C9.94341 9.04257 9.96074 9.01457 9.99541 8.9799C10.0861 8.8919 10.1847 8.8439 10.2914 8.8359C10.3181 8.8359 10.3381 8.8399 10.3514 8.8479C10.3834 8.8719 10.3821 8.91857 10.3474 8.9879C10.3021 9.08124 10.2261 9.16257 10.1194 9.2319C10.0074 9.30657 9.89141 9.3559 9.77141 9.3799C9.70474 9.39324 9.50341 9.3999 9.16741 9.3999H8.86741H8.10741L8.09141 9.3879C8.05941 9.36657 8.05407 9.33324 8.07541 9.2879C8.10741 9.2239 8.16874 9.17057 8.25941 9.1279C8.30741 9.1039 8.36474 9.0919 8.43141 9.0919C8.43674 9.0919 8.48874 9.09057 8.58741 9.0879L8.81141 9.0839L8.83541 9.0599C8.90741 8.9799 8.97941 8.83724 9.05141 8.6319C9.08607 8.52257 9.12607 8.3799 9.17141 8.2039L9.29941 7.6999C9.38741 7.3959 9.48607 7.16924 9.59541 7.0199L9.62341 6.9799H9.46341C9.24207 6.9799 9.07407 6.9879 8.95941 7.0039C8.86874 7.01724 8.81407 7.03057 8.79541 7.0439C8.77674 7.0519 8.75941 7.08124 8.74341 7.1319C8.72474 7.19057 8.68207 7.24257 8.61541 7.2879C8.54341 7.3359 8.47141 7.3639 8.39941 7.3719C8.37274 7.3719 8.35407 7.3679 8.34341 7.3599C8.30874 7.34124 8.30074 7.30524 8.31941 7.2519C8.38074 7.06524 8.52874 6.91724 8.76341 6.8079C8.78207 6.79724 8.80207 6.7879 8.82341 6.7799C8.98607 6.7159 9.19674 6.6799 9.45541 6.6719Z" fill="#64FFDA"/>
</svg>
