<svg width="32" height="32" viewBox="0 0 32 32" fill="none" xmlns="http://www.w3.org/2000/svg">
<path d="M11.7017 18.4416V8.39575L19.6434 3.88904C24.0436 1.39152 31.9215 7.55161 28.6142 13.1885" stroke="#64FFDA" stroke-width="0.520833" stroke-linejoin="round"/>
<path d="M11.7017 13.5581L20.5518 8.53516L28.4936 13.0419C32.8938 15.5394 31.4034 25.3272 24.7818 25.3272" stroke="#64FFDA" stroke-width="0.520833" stroke-linejoin="round"/>
<path d="M16.0026 11.1167L24.8528 16.1396V25.16C24.8528 30.1551 15.4845 33.7828 12.1772 28.1459" stroke="#64FFDA" stroke-width="0.520833" stroke-linejoin="round"/>
<path d="M20.3036 13.7393V23.6038L12.3618 28.1105C7.96159 30.608 0.0837251 24.4479 3.39101 18.811" stroke="#64FFDA" stroke-width="0.520833" stroke-linejoin="round"/>
<path d="M20.3036 18.4414L11.4534 23.4644L3.5117 18.9577C-0.895648 16.4532 0.594759 6.67236 7.21642 6.67236" stroke="#64FFDA" stroke-width="0.520833" stroke-linejoin="round"/>
<path d="M16.0025 20.8834L7.15234 15.8605V6.84009C7.15234 1.84504 16.5206 -1.78265 19.8279 3.85422" stroke="#64FFDA" stroke-width="0.520833" stroke-linejoin="round"/>
</svg>
