<svg width="36" height="36" viewBox="0 0 36 36" fill="none" xmlns="http://www.w3.org/2000/svg">
<path d="M35.6786 16.4732H30.7687C30.0737 10.5911 25.4089 5.92634 19.5268 5.23125V0.321429C19.5268 0.144643 19.3821 0 19.2054 0H16.7946C16.6179 0 16.4732 0.144643 16.4732 0.321429V5.23125C10.5911 5.92634 5.92634 10.5911 5.23125 16.4732H0.321429C0.144643 16.4732 0 16.6179 0 16.7946V19.2054C0 19.3821 0.144643 19.5268 0.321429 19.5268H5.23125C5.92634 25.4089 10.5911 30.0737 16.4732 30.7687V35.6786C16.4732 35.8554 16.6179 36 16.7946 36H19.2054C19.3821 36 19.5268 35.8554 19.5268 35.6786V30.7687C25.4089 30.0737 30.0737 25.4089 30.7687 19.5268H35.6786C35.8554 19.5268 36 19.3821 36 19.2054V16.7946C36 16.6179 35.8554 16.4732 35.6786 16.4732ZM18 27.8036C12.5839 27.8036 8.19643 23.4161 8.19643 18C8.19643 12.5839 12.5839 8.19643 18 8.19643C23.4161 8.19643 27.8036 12.5839 27.8036 18C27.8036 23.4161 23.4161 27.8036 18 27.8036Z" fill="#64FFDA"/>
</svg>
