<svg width="300" height="300" viewBox="0 0 300 300" fill="none" xmlns="http://www.w3.org/2000/svg">
<path opacity="0.5" d="M150 0C120.333 0 91.3319 8.79735 66.6645 25.2796C41.9972 41.7618 22.7713 65.1885 11.4181 92.5975C0.0649926 120.006 -2.90551 150.166 2.88228 179.264C8.67006 208.361 22.9562 235.088 43.934 256.066C64.9119 277.044 91.6394 291.33 120.737 297.118C149.834 302.906 179.994 299.935 207.403 288.582C234.811 277.229 258.238 258.003 274.72 233.335C291.203 208.668 300 179.667 300 150C300 130.302 296.12 110.796 288.582 92.5975C281.044 74.3986 269.995 57.8628 256.066 43.934C242.137 30.0052 225.601 18.9563 207.403 11.4181C189.204 3.87986 169.698 0 150 0ZM150 270C126.266 270 103.066 262.962 83.3316 249.776C63.5977 236.591 48.217 217.849 39.1345 195.922C30.052 173.995 27.6756 149.867 32.3058 126.589C36.9361 103.311 48.3649 81.9295 65.1472 65.1472C81.9295 48.3649 103.311 36.936 126.589 32.3058C149.867 27.6755 173.995 30.0519 195.922 39.1344C217.849 48.217 236.591 63.5977 249.776 83.3316C262.962 103.065 270 126.266 270 150C270 181.826 257.357 212.348 234.853 234.853C212.348 257.357 181.826 270 150 270Z" fill="#64FFDA"/>
<path d="M270 150H300C300 130.302 296.12 110.796 288.582 92.5974C281.044 74.3986 269.995 57.8628 256.066 43.934C242.137 30.0052 225.601 18.9563 207.402 11.4181C189.204 3.87986 169.698 0 150 0V30C181.826 30 212.348 42.6428 234.853 65.1472C257.357 87.6515 270 118.174 270 150Z" fill="#64FFDA"/>
</svg>
