<svg width="302" height="302" viewBox="0 0 302 302" fill="none" xmlns="http://www.w3.org/2000/svg">
<path d="M268.925 130.428L254.523 58.3682C253.515 53.3241 250.737 48.8072 246.692 45.6341C242.646 42.461 237.601 40.841 232.466 41.0669C227.331 41.2928 222.447 43.3497 218.695 46.8658C214.944 50.3819 212.573 55.1253 212.011 60.2385L207.179 103.723L110.704 7.14865C108.755 5.19867 106.441 3.65203 103.895 2.59704C101.348 1.54206 98.6194 0.99938 95.8635 1C93.1076 1.00062 90.3789 1.54453 87.833 2.60066C85.2872 3.65679 82.9741 5.20447 81.0258 7.15533C77.0912 11.0953 74.8814 16.4383 74.8827 22.0089C74.8839 27.5796 77.0961 32.9216 81.0325 36.8598L66.1902 22.0176C64.2419 20.0667 61.9288 18.519 59.383 17.4629C56.8371 16.4068 54.1084 15.8629 51.3525 15.8622C45.7868 15.861 40.4485 18.0727 36.5121 22.0109C32.5757 25.949 30.3635 31.291 30.3622 36.8617C30.361 42.4324 32.5708 47.7754 36.5054 51.7153L51.3478 66.5709C47.3584 62.937 42.1247 60.9794 36.732 61.104C31.3393 61.2286 26.2013 63.4258 22.3837 67.2399C18.566 71.0541 16.3615 76.1926 16.2274 81.5899C16.0932 86.9871 18.0396 92.229 21.6631 96.2285L36.5054 111.138C32.5397 107.342 27.247 105.251 21.7604 105.313C16.2738 105.374 11.0293 107.583 7.14945 111.467C3.2696 115.35 1.06276 120.599 1.00132 126.091C0.939873 131.582 3.02871 136.879 6.82069 140.849L34.5567 169.251M113.04 68.9087L80.9925 36.833M71.8361 87.0774L51.3211 66.5441" stroke="#64FFDA" stroke-width="1.5" stroke-linecap="round" stroke-linejoin="round"/>
<path d="M155.94 157.281C101.069 107.263 76.8696 120.502 69.4217 128.024L19.8359 186.698C12.9872 194.612 8.78643 204.474 7.82324 214.899M128.471 231.037L111.84 230.864L142.019 196.383M49.6809 286.679L59.2109 274.762C69.6219 277.02 80.4334 276.633 90.6442 273.654L134.144 264.102M187.209 281.459C174.708 268.947 167.686 251.978 167.686 234.284C167.686 216.589 174.708 199.62 187.209 187.108C199.71 174.596 216.664 167.567 234.343 167.567C243.096 167.567 251.764 169.293 259.851 172.646C267.939 175.999 275.287 180.913 281.477 187.108C287.666 193.303 292.576 200.658 295.926 208.752C299.276 216.847 301 225.522 301 234.284C301 243.045 299.276 251.72 295.926 259.815C292.576 267.909 287.666 275.264 281.477 281.459C275.287 287.654 267.939 292.569 259.851 295.922C251.764 299.274 243.096 301 234.343 301C216.664 301 199.71 293.971 187.209 281.459ZM187.209 281.459L281.459 187.112" stroke="#64FFDA" stroke-width="1.5" stroke-linecap="round" stroke-linejoin="round"/>
</svg>
