<svg width="18" height="23" viewBox="0 0 18 23" fill="none" xmlns="http://www.w3.org/2000/svg">
<path d="M15 0H2.5C1.83696 0 1.20107 0.263392 0.732233 0.732233C0.263392 1.20107 0 1.83696 0 2.5V20C0 20.663 0.263392 21.2989 0.732233 21.7678C1.20107 22.2366 1.83696 22.5 2.5 22.5H15C15.663 22.5 16.2989 22.2366 16.7678 21.7678C17.2366 21.2989 17.5 20.663 17.5 20V2.5C17.5 1.83696 17.2366 1.20107 16.7678 0.732233C16.2989 0.263392 15.663 0 15 0ZM10 18.75H7.5V16.25H10V18.75ZM13.375 9.25C13.273 9.55099 13.1476 9.84355 13 10.125C12.8299 10.4045 12.6192 10.6572 12.375 10.875L11.75 11.5C11.5322 11.7442 11.2795 11.9549 11 12.125C10.75 12.375 10.625 12.625 10.375 12.875C10.1761 13.1757 10.0479 13.5176 10 13.875C9.89664 14.2832 9.85452 14.7044 9.875 15.125H7.625C7.60445 14.6218 7.64644 14.1179 7.75 13.625C7.77323 13.2391 7.85762 12.8594 8 12.5C8.11843 12.1833 8.28727 11.8878 8.5 11.625L9.25 10.875C9.42601 10.6715 9.63785 10.502 9.875 10.375C10.125 10.25 10.25 10 10.375 9.875L10.75 9.125C10.8525 8.84532 10.8951 8.5472 10.875 8.25C10.8518 7.86413 10.7674 7.4844 10.625 7.125C10.3367 6.62813 9.89938 6.23456 9.375 6C9.18307 5.89895 8.96603 5.85554 8.75 5.875C8.38852 5.84656 8.02584 5.91221 7.69726 6.06555C7.36868 6.21888 7.0854 6.45469 6.875 6.75C6.44695 7.3743 6.22811 8.11836 6.25 8.875H4C4.00285 8.15046 4.12968 7.43175 4.375 6.75C4.58583 6.14188 4.92714 5.58725 5.375 5.125C5.80243 4.6939 6.31267 4.35374 6.875 4.125C7.55675 3.87968 8.27546 3.75285 9 3.75C9.59125 3.76287 10.1788 3.8468 10.75 4C11.2755 4.16964 11.7488 4.47085 12.125 4.875C12.527 5.27925 12.8643 5.74303 13.125 6.25C13.3695 6.84506 13.4968 7.4817 13.5 8.125C13.514 8.50411 13.4719 8.88321 13.375 9.25Z" fill="#6E6E6E"/>
</svg>
