<svg width="110" height="110" viewBox="0 0 110 110" fill="none" xmlns="http://www.w3.org/2000/svg">
<path fill-rule="evenodd" clip-rule="evenodd" d="M51.5515 0.0450927L48.8942 0.320316C35.9997 1.60698 23.0089 8.25362 14.2244 18.0653C4.51051 28.916 -0.425599 42.3813 0.0287705 56.7273C0.820475 81.5043 17.8593 102.483 42.0304 108.456C49.147 110.173 56.5339 110.461 63.7628 109.304C70.9917 108.146 77.9187 105.566 84.1422 101.713C96.3812 94.0911 105.141 81.9762 108.541 67.9702C109.725 63.1469 110 60.6905 110 54.9865C110 49.2825 109.725 46.8262 108.541 42.0029C103.088 19.7442 84.7481 3.36841 61.9263 0.382241C59.9711 0.12766 52.8596 -0.0993995 51.5515 0.0450927ZM60.9143 10.6962C65.6688 11.3054 70.2905 12.6933 74.5936 14.8039C79.3989 17.1433 82.7172 19.524 86.6206 23.4253C90.2017 26.876 93.1247 30.9491 95.2468 35.4457C98.3103 41.7414 99.6941 47.817 99.6941 54.9865C99.7883 61.8315 98.2296 68.5983 95.1504 74.7131C93.9663 77.1282 91.5774 81.002 90.4621 82.3162L90.0835 82.7634L58.67 51.3605L27.2496 19.9644L27.6971 19.5859C29.012 18.4713 32.888 16.0837 35.3044 14.9003C43.2298 10.9756 52.1492 9.5114 60.9143 10.6962ZM51.462 58.6608L82.8549 90.0431L82.3936 90.4077C79.9926 92.1799 77.4454 93.7451 74.7795 95.0865C70.4658 97.1963 65.8514 98.626 61.1002 99.325C58.1812 99.7722 51.9026 99.7722 48.9837 99.325C35.5729 97.2883 24.2549 89.9743 17.1296 78.7314C15.377 75.8272 13.915 72.7573 12.7649 69.5665C10.0675 61.623 9.61721 53.0894 11.4637 44.9065C12.8806 38.9894 15.444 33.4073 19.009 28.4757C19.4909 27.822 19.9247 27.2853 19.9797 27.2853C20.0279 27.2853 34.196 41.4043 51.462 58.6608Z" fill="#6E6E6E"/>
</svg>
