<svg width="100" height="100" viewBox="0 0 100 100" fill="none" xmlns="http://www.w3.org/2000/svg">
<path d="M50 100C40.8111 100 33.3333 92.5222 33.3333 83.3333L33.6278 66.3722L16.7667 66.6667C7.47778 66.6667 0 59.1889 0 50C0 40.8111 7.47778 33.3333 16.6667 33.3333L33.6278 33.0333L33.3333 16.7667C33.3333 7.47778 40.8111 0 50 0C59.1889 0 66.6667 7.47778 66.6667 16.6667L66.9722 33.0333L83.4333 33.3333C92.5222 33.3333 100 40.8111 100 50C100 59.1889 92.5222 66.6667 83.3333 66.6667L66.9722 66.3722L66.6667 83.4333C66.6667 92.5222 59.1889 100 50 100ZM44.4444 55.5556V83.4333C44.4444 86.3944 46.9389 88.8889 50 88.8889C53.0611 88.8889 55.5556 86.3944 55.5556 83.3333V55.5556H83.4333C86.3944 55.5556 88.8889 53.0611 88.8889 50C88.8889 46.9389 86.3944 44.4444 83.3333 44.4444H55.5556V16.6667C55.5556 13.5056 53.0611 11.1111 50 11.1111C46.9389 11.1111 44.4444 13.6056 44.4444 16.6667V44.4444H16.6667C13.5056 44.4444 11.1111 46.9389 11.1111 50C11.1111 53.0611 13.6056 55.5556 16.6667 55.5556H44.4444Z" fill="#112240"/>
</svg>
